<svg xmlns="http://www.w3.org/2000/svg" xmlns:xlink="http://www.w3.org/1999/xlink" version="1.1" id="Layer_1" x="0" y="0" viewBox="-1163.7 2036.3 239.8 153.5" xml:space="preserve" enable-background="new -1163.7 2036.3 239.8 153.5">
  <style type="text/css">

	.st0{opacity:0.5;fill:#FFFFFF;enable-background:new    ;}
	.st1{fill:#DADBDD;}
	.st2{fill:#FFFFFF;}
	.st3{fill:#ACADAE;}
	.st4{fill:#B9BCC0;}

  </style>
  <path class="st0" d="M-982.1 2082l-3.7 16.2c0 0-0.1 0-0.1 0.1 -0.2 0.1-0.3 0.3-0.4 0.5 -0.4 0.7-0.7 1.5-1.1 2.3 -0.7 1.2-1.9 2.1-3.2 2.8l-18.6 6.4c0-1 0-1.8-0.1-2.2 -1-4.5-3.4-8.5-6.5-11.9 2.5 2 5.2 4.9 7.8 10.5 0.5-6.5-1.5-12.5-4.5-17.5 3.1 2.7 4.8 5.1 4.8 5.1 -3-12-6.7-14.8-11.7-17.5 2.9 1.1 5.6 2.7 8 5.4 -3.2-10.6-7.5-14.3-13.8-15.6 2.7 0 5.6 0.6 8.4 2.5 -1.3-2.7-3.7-4.7-6.5-6.1 1.2 0 2.2-0.3 2.9-1 -2.2-0.2-4.9-4.1-7.8-5.6 -1.3-0.7-4.1-1.5-7.1-1.5 1.8-1 3.7-1.8 5.8-2.4 -4.3-2.5-8.5-2.2-12.2-0.6 0.1-3.4-0.5-6.9-1.6-8.1 -1.7 2.9-5.7 4.7-12 5.1 1.3-2.7 3.2-5.5 7.8-6.7 -7.1-1.4-17.3 0.8-23.7 4.5 1.6-4.1 2.6-7.8 2.9-9.4 -2.5 2.3-8.3 5.5-13.2 7.9 0.3-1.9 1.4-3.7 3.9-5.2 -7.8 0.6-13.7 4-17.9 7.6 -0.2-2.9 0.6-5.1 2.8-5.8 -7.3 1-11.5 4.7-13.8 7.7 -1.5-1.6-2.7-3.3-3.2-5.2 -0.5 1.7-1.2 4.3-1.2 6.5 -2.8-1.5-6.3-1.6-10.6 0.9 2.9 0.8 5.3 1.9 7.5 3.5 -2.4 0.2-4.5 0.8-5.6 1.4 -2.8 1.5-5.6 5.4-7.8 5.6 1 1 2.6 1.2 4.4 0.9 -2.2 1.3-4.2 3.2-5.4 5.7 3-2 5.7-2.4 8.2-2.3l0 0c-7.4 0.9-12.4 4.2-15.9 15.9 2.5-2.7 5.2-4.4 8-5.4 -5 2.8-8.8 5.5-11.7 17.5 0 0 1.7-2.4 4.8-5.1 -3.1 5-5 11-4.5 17.5 2.6-5.6 5.3-8.5 7.8-10.5 -3.2 3.4-5.5 7.4-6.5 11.9 -0.1 0.4-0.1 1-0.1 1.9 -9.5 0-15.3-5.3-16.9-11.2 0.1 0 0.2 0 0.2 0 2.1-0.2 3.5-1.5 3.5-2.9l-0.3-16.9c0-0.9-1.3-1.6-2.4-0.8 -0.2 0.2-0.4 0.4-0.3 0.6l0.1 9.5c-0.4-0.6-0.5-0.9-1.2-0.9l-4.9 0.1c-1.2 0-2.2 1-2.2 2.2 0 2.4 0.1 5.9 0.3 6.5 0.6 1.8 2 2.6 4.6 2.7 0.5 3.6 1.8 6.9 4.3 9.5 3.7 3.8 8.9 5.7 15.2 5.7 0.1 4.6 0.1 10.2-1.7 12.2 1.6-0.4 3.1-1.1 4.6-2 -1.6 6.2-1.1 12.7 4.7 17.1 -0.2-3.4-0.1-6.2 0.4-9 -0.4 3.9 0.8 6.9 1.6 8.7 0-1.5 0.3-3.4 0.8-5.5 -0.1 6.4 1.9 10.3 10.8 18.8 0 0-0.9-3.2-0.9-7.8l0 0c0.7 5 3.2 14.4 13.3 15.6 -1.6-1.5-2.5-3.9-2.8-6.7 2 3.6 7 10.5 13.1 11.1 -1.3-1-2-2.6-2.4-4.6 1.3 1.4 3 2.8 5.2 4.2l3.2 21c-1.4-0.7-3.5-1.2-5.8-1.2 -4.2 0-7.6 1.5-7.8 3.5 0 0.1 0.1 0.1 0.3 0.1h13.6 1 0.4c0.1 0 0.3-0.1 0.3-0.3l2.7-26c0.1 0 0.1-0.1 0.2-0.1 3.1 1.7 8.4 5 8.4 7.1 0 1.5 5.6-3.9 9-7.2 0.3-0.1 0.6-0.1 0.9-0.2 2.7 1.7 4.7 3.4 3.2 6.1 5.2-2.2 8.6-4.7 10.8-7 -0.3 2-1.1 3.6-2.4 4.6 3-0.3 5.7-2.1 7.9-4.3l19.3 15.5c0.1 0.1 0.3 0.1 0.4 0l0.3-0.3 0.7-0.7 9.6-9.6c0.1-0.1 0.2-0.2 0.1-0.3 -1.5-1.3-5 0.1-7.9 3 -1.6 1.6-2.7 3.4-3.2 4.9l-10.9-14.8c5.2-3.3 6.8-9.7 7.4-13.5l0 0c0 4.6-0.9 7.8-0.9 7.8 8.8-8.5 10.9-12.4 10.8-18.8 0.5 2.1 0.8 4 0.8 5.5 0.8-1.8 2-4.8 1.6-8.7 0.5 2.7 0.5 5.6 0.4 9 5.8-4.4 6.3-10.9 4.7-17.1 1.4 0.9 3 1.6 4.6 2 -1.6-1.7-1.8-6.3-1.7-10.5l18.4-8.8c0.1 0.4 0.2 0.8 0.4 1.1 0.4 0.8 1.1 1.8 1.9 2.8l-4.5 19.5 58.4 13.4 11.1-48.3L-982.1 2082z"/>
  <path class="st1" d="M-1059.5 2132.5l-0.4 0.1c-9.7 2-19.8 2-29.6 0l0 0c-14.6-3-25-16-25-31l0 0c0-21.4 17.2-38.7 38.4-38.7h2c21.5 0 39 17.6 39 39.3l0 0C-1035 2116.8-1045.3 2129.5-1059.5 2132.5z"/>
  <ellipse class="st2" cx="-1094.8" cy="2091.1" rx="10.7" ry="12"/>
  <ellipse class="st3" cx="-1092.4" cy="2091.1" rx="6.6" ry="7.4"/>
  <ellipse class="st2" cx="-1054.7" cy="2091.1" rx="10.7" ry="12"/>
  <ellipse class="st3" cx="-1057.1" cy="2091.1" rx="6.6" ry="7.4"/>
  <path class="st3" d="M-1067.8 2115.7c2.2-2.1 3.6-5 3.6-7.8 -7 1.6-14.3 1.6-21.3 0.1l-0.3-0.1c0 2.7 1.4 5.6 3.5 7.7 1.9-1.8 4.4-2.9 7.2-2.9C-1072.3 2112.7-1069.7 2113.8-1067.8 2115.7z"/>
  <path class="st2" d="M-1067.8 2115.7c-1.9-1.8-4.4-3-7.3-3 -2.8 0-5.3 1.1-7.2 2.9 1.9 1.9 4.5 3.1 7.3 3.1C-1072.3 2118.7-1069.8 2117.5-1067.8 2115.7z"/>
  <path class="st4" d="M-990.7 2102.6c1.6-0.3 1.2-1.3 3.4 2 1.1 1.7 2.1 3.1 3.7 4.4 0.9 0.7 2.1 1.3 2.8 2.2 0.4 0.5 0.6 1.1 0.4 1.7 -0.2 0.5-0.7 0.9-1.2 1.1 -3.9 1.3-8.4-3.9-9.9-6.9C-992.3 2105.5-992.6 2102.9-990.7 2102.6z"/>
  <path class="st4" d="M-991.5 2102.9c1.2-0.6 2.4-1.3 3-2.4 0.3-0.5 0.4-1 0.7-1.5 0.1-0.1 0.2-0.3 0.3-0.3 0.2-0.1 0.4-0.1 0.6-0.1 0.7 0.1 1.1 1 1 1.7 -0.1 0.7-0.7 1.3-1.2 1.7 -0.3 0.3-0.7 0.5-1.1 0.7 -1 0.5-2.2 0.6-3.3 0.7"/>
  <path class="st4" d="M-991.4 2105.6l0.3-2.9 -19.1 6.6c0-1 0-1.8-0.1-2.2 -1-4.5-3.4-8.5-6.5-11.9 2.5 2 5.2 4.9 7.8 10.5 0.5-6.5-1.5-12.5-4.5-17.5 3.1 2.7 4.8 5.1 4.8 5.1 -3-12-6.7-14.8-11.7-17.5 2.9 1.1 5.6 2.7 8 5.4 -3.2-10.6-7.5-14.3-13.8-15.6 2.7 0 5.6 0.6 8.4 2.5 -1.3-2.7-3.7-4.7-6.5-6.1 1.2 0 2.2-0.3 2.9-1 -2.2-0.2-4.9-4.1-7.8-5.6 -1.3-0.7-4.1-1.5-7.1-1.5 1.8-1 3.7-1.8 5.8-2.4 -4.3-2.5-8.5-2.2-12.2-0.6 0.1-3.4-0.5-6.9-1.6-8.1 -1.7 2.9-5.7 4.7-12 5.1 1.3-2.7 3.2-5.5 7.8-6.7 -7.1-1.4-17.3 0.8-23.7 4.5 1.6-4.1 2.6-7.8 2.9-9.4 -2.5 2.3-8.3 5.5-13.2 7.9 0.3-1.9 1.4-3.7 3.9-5.2 -7.8 0.6-13.7 4-17.9 7.6 -0.2-2.9 0.6-5.1 2.8-5.8 -7.3 1-11.5 4.7-13.8 7.7 -1.5-1.6-2.7-3.3-3.2-5.2 -0.5 1.7-1.2 4.3-1.2 6.5 -2.8-1.5-6.3-1.6-10.6 0.9 2.9 0.8 5.3 1.9 7.5 3.5 -2.4 0.2-4.5 0.8-5.6 1.4 -2.8 1.5-5.6 5.4-7.8 5.6 1 1 2.6 1.2 4.4 0.9 -2.2 1.3-4.2 3.2-5.4 5.7 3-2 5.7-2.4 8.2-2.3l0 0c-7.4 0.9-12.4 4.2-15.9 15.9 2.5-2.7 5.2-4.4 8-5.4 -5 2.8-8.8 5.5-11.7 17.5 0 0 1.7-2.4 4.8-5.1 -3.1 5-5 11-4.5 17.5 2.6-5.6 5.3-8.5 7.8-10.5 -3.2 3.4-5.5 7.4-6.5 11.9 -0.1 0.4-0.1 1-0.1 1.9 -9.5 0-15.3-5.3-16.9-11.2 0.1 0 0.2 0 0.2 0 2.1-0.2 3.5-1.5 3.5-2.9l-0.3-16.9c0-0.9-1.3-1.6-2.4-0.8 -0.2 0.2-0.4 0.4-0.3 0.6l0.1 9.5c-0.4-0.6-0.5-0.9-1.2-0.9l-4.9 0.1c-1.2 0-2.2 1-2.2 2.2 0 2.4 0.1 5.9 0.3 6.5 0.6 1.8 2 2.6 4.6 2.7 0.5 3.6 1.8 6.9 4.3 9.5 3.7 3.8 8.9 5.7 15.2 5.7 0.1 4.6 0.1 10.2-1.7 12.2 1.6-0.4 3.1-1.1 4.6-2 -1.6 6.2-1.1 12.7 4.7 17.1 -0.2-3.4-0.1-6.2 0.4-9 -0.4 3.9 0.8 6.9 1.6 8.7 0-1.5 0.3-3.4 0.8-5.5 -0.1 6.4 1.9 10.3 10.8 18.8 0 0-0.9-3.2-0.9-7.8l0 0c0.7 5 3.2 14.4 13.3 15.6 -1.6-1.5-2.5-3.9-2.8-6.7 2 3.6 7 10.5 13.1 11.1 -1.3-1-2-2.6-2.4-4.6 1.3 1.4 3 2.8 5.2 4.2l3.2 21c-1.4-0.7-3.5-1.2-5.8-1.2 -4.2 0-7.6 1.5-7.8 3.5 0 0.1 0.1 0.1 0.3 0.1h13.6 1 0.4c0.1 0 0.3-0.1 0.3-0.3l2.7-26c0.1 0 0.1-0.1 0.2-0.1 3.1 1.7 8.4 5 8.4 7.1 0 1.5 5.6-3.9 9-7.2 0.3-0.1 0.6-0.1 0.9-0.2 2.7 1.7 4.7 3.4 3.2 6.1 5.2-2.2 8.6-4.7 10.8-7 -0.3 2-1.1 3.6-2.4 4.6 3-0.3 5.7-2.1 7.9-4.3l19.3 15.5c0.1 0.1 0.3 0.1 0.4 0l0.3-0.3 0.7-0.7 9.6-9.6c0.1-0.1 0.2-0.2 0.1-0.3 -1.5-1.3-5 0.1-7.9 3 -1.6 1.6-2.7 3.4-3.2 4.9l-10.9-14.8c5.2-3.3 6.8-9.7 7.4-13.5l0 0c0 4.6-0.9 7.8-0.9 7.8 8.8-8.5 10.9-12.4 10.8-18.8 0.5 2.1 0.8 4 0.8 5.5 0.8-1.8 2-4.8 1.6-8.7 0.5 2.7 0.5 5.6 0.4 9 5.8-4.4 6.3-10.9 4.7-17.1 1.4 0.9 3 1.6 4.6 2 -1.6-1.7-1.8-6.3-1.7-10.5L-991.4 2105.6zM-1035 2102.1c0 14.7-10.2 27.4-24.5 30.3l-0.4 0.1c-9.7 2-19.8 2-29.6 0 -14.6-3-25-16-25-31l0 0c0-12.7 6.1-24 15.5-31.1 4.5 2.3 9.7 3.4 14.7 2.7 -3-1.2-5.2-3.4-7-6.1 0.7 0.1 1.5 0.2 2.2 0.4 5.2 1 13.2 2.2 16.7 6.5 0.3-2 0.1-4.1-0.6-6.1 6 1.9 11.9 4.4 15.9 7.4 -0.4-3-1.5-5.5-3.1-7.7 3.3 2.4 6.6 5.6 9.7 9.8 0.7-2.4 0.5-4.6-0.2-6.7C-1041.2 2077.9-1035 2089.3-1035 2102.1L-1035 2102.1z"/>
  <rect x="-989.4" y="2087.2" transform="matrix(0.9745 0.2242 -0.2242 0.9745 449.0952 268.8782)" class="st4" width="60" height="49.5"/>
  <rect x="-950.2" y="2097" transform="matrix(0.9745 0.2242 -0.2242 0.9745 450.3353 265.3131)" class="st1" width="14.3" height="37.3"/>
  <rect x="-982.1" y="2091.4" transform="matrix(0.9745 0.2242 -0.2242 0.9745 447.2154 270.3405)" class="st1" width="30.6" height="26.1"/>
  <rect x="-986.1" y="2120.3" transform="matrix(0.9745 0.2242 -0.2242 0.9745 450.9704 271.6753)" class="st1" width="30.6" height="2.6"/>
  <rect x="-987.3" y="2125.6" transform="matrix(0.9745 0.2242 -0.2242 0.9745 452.1176 272.0835)" class="st1" width="30.6" height="2.6"/>
  <path class="st4" d="M-992.9 2103.6c1.7-0.9 3.5-1.9 4.5-3.6 0.4-0.7 0.7-1.5 1.1-2.3 0.1-0.2 0.2-0.4 0.4-0.5 0.2-0.2 0.5-0.2 0.8-0.2 1.1 0.2 1.7 1.4 1.5 2.5 -0.2 1.1-1 1.9-1.9 2.6 -0.5 0.4-1 0.8-1.6 1.1 -1.5 0.8-3.3 0.9-5 1.1"/>
</svg>
